<?xml version="1.0" encoding="utf-8"?>
<!-- Generator: Adobe Illustrator 25.0.0, SVG Export Plug-In . SVG Version: 6.00 Build 0)  -->
<svg version="1.1" id="Layer_1" xmlns="http://www.w3.org/2000/svg" xmlns:xlink="http://www.w3.org/1999/xlink" x="0px" y="0px"
	 viewBox="0 0 4080.7 2798.7" style="enable-background:new 0 0 4080.7 2798.7;" xml:space="preserve">
<style type="text/css">
	.st0{stroke:#000000;stroke-width:3.0433;stroke-miterlimit:30.4333;}
	.st1{fill:#FFFFFF;}
	.st2{fill:#7A1315;}
	.st3{fill:#848484;}
</style>
<path class="st0" d="M2938.1,1792.7c-4.9,7-312.2,451.9-897.8,456.5c-585.2-4.6-892.9-449.5-897.8-456.5
	c4.6,4.6,292.5,304.6,550.8,350.9c265.4,47.5,327.2-62.4,327.2-62.4v-0.3c-270.6-7.3-540.8-160.1-663.4-282.7
	c-77.3-77.3-171-32-171-32c92.2-220.6-6.1-402.9-6.1-402.9c71.5,38,161.6,68.5,245.3,32c83.7-36.5,149.7-125.1,193.9-225.5
	s421.5-1016.2,421.5-1016.2s377.4,915.7,421.5,1016.2c44.1,100.4,110.2,189,193.9,225.5c83.7,36.5,173.8,6.1,245.3-32
	c0,0-98,182.3-6.1,402.9c0,0-94-45.3-171,32c-122.6,122.6-392.9,275.4-663.4,282.7v0.3c13.7,16.7,61.8,109.9,327.2,62.4
	C2645.7,2097.3,2933.9,1797.2,2938.1,1792.7z"/>
<path class="st1" d="M2514.2,1604c-18,73.6-97.4,156.1-100.4,159.2c2.4-3,55.7-74,7-157c-33.5-57.2-69.1-80-108.6-133.9
	c-47.2-64.2-113.5-190.8-190.8-104.4c-58.4,65.4-109.6,65.4-168,0c-77-86.1-143.3,40.2-190.8,104.4
	c-39.6,53.9-75.2,76.7-108.6,133.9c-48.7,83.1,4.6,154,7,157c-2.7-3-82.5-85.5-100.4-159.2c-25.6-105-4-130,49-165.3
	c53.3-35.6,109.6-86.4,129.3-154.3c20.4-69.1,7.9-140.9,30.4-189.6c24-51.7,18.6-117.8,53.9-182.6c81.6-150,208.8-145.5,213.9-145.2
	c9.1-0.3,133.3-2.4,213.6,145.2c35,64.8,29.8,130.9,53.9,182.6c22.5,48.7,10,120.8,30.4,189.6c19.8,67.9,76.4,118.7,129.3,154.3
	C2518.4,1474,2539.7,1499,2514.2,1604L2514.2,1604z"/>
<path class="st1" d="M1831,1459.7c0,0,33.5,45.6,43.5,73c10,27.4,25.3,87.3,33.5,112.6c8.2,25.3,29.5,115.6,33.5,133.9
	c4,18.3,10.7,176.2,51.7,266.9c0,0-33.5-58.4-45-88.9c-16.1-43.2-34.1-111.1-73.6-164.6c-45.3-61.5-70.9-60-110.5-104.4
	c-39.6-44.7-33.2-32.3-45.3-46.6c-12.2-14.3-17.7-29.8,3.7-54.8C1743.6,1562,1831,1459.7,1831,1459.7L1831,1459.7z M2243.6,1459.7
	c0,0-33.5,45.6-43.5,73s-25.3,87.3-33.5,112.6s-29.5,115.6-33.5,133.9c-4,18.3-10.7,176.2-51.7,266.9c0,0,33.5-58.4,45-88.9
	c16.1-43.2,34.1-111.1,73.6-164.6c45.3-61.5,70.9-60,110.5-104.4c39.6-44.7,33.2-32.3,45.3-46.6s17.7-29.8-3.7-54.8
	C2331,1562,2243.6,1459.7,2243.6,1459.7L2243.6,1459.7z"/>
<path class="st2" d="M1700.4,1650.6l-20.7,82.8l20.7,79.7l-43.2-20.7c0,0-30.4,81-33.5,88.6c-3,7.6-9.7,13.7,25.9,35.9
	c35.6,22.2,155.2,30.4,211.5,52.3c56.3,21.9,101,58.4,101,58.4s-47.8-91.3-54.8-117.2s-17.7-81.9-105-157.6L1700.4,1650.6
	L1700.4,1650.6z M2372.4,1650.6l20.7,82.8l-20.7,79.7l43.2-20.7c0,0,30.4,81,33.5,88.6c3,7.6,9.7,13.7-25.9,35.9
	c-35.6,22.2-155.2,30.4-211.5,52.3c-56.3,21.9-101,58.4-101,58.4s48.1-91.3,54.8-117.2s17.7-81.9,105-157.6L2372.4,1650.6
	L2372.4,1650.6z"/>
<path d="M1717.4,2407.4c6.1,6.4,9.4,13.7,10,21.6c0.3,2.4,0,5.5-0.6,8.8s-1.8,6.7-4,9.7c-2.1,3-4.3,6.1-7,8.8s-5.2,4.6-7,5.2
	c-8.8,4.6-20.1,6.4-33.5,5.2c-16.7-1.5-27.7-4.9-32.6-10v-27.1l0.9,0.9c5.2,9.1,10.7,15.8,16.4,20.1s12.5,6.7,20.1,7.3
	c14.3,1.2,23.4-2.1,27.7-10c0-0.6,0.6-1.5,0.9-2.4c0.9-2.1,1.2-4.9,1.5-7.9c0.3-6.1-1.5-11.3-5.5-15.8c-4-4.3-12.2-10.7-24.3-18.6
	c-15.5-10-25.9-18-31-23.4c-5.8-6.7-8.5-14.6-7.9-23.7c0.6-9.7,5.2-17.3,13.4-23.4c8.5-6.1,18.9-8.5,31.7-7.6
	c8.8,0.9,16.7,2.7,23.7,5.5c6.4,2.7,9.4,5.2,9.1,7.3c0,1.2,0.3,9.1,0.3,24c0.9,1.5-0.6-0.6-4.3-6.1s-7.9-10.3-13.4-14.3
	c-4.9-4-11.3-6.1-19.5-6.7c-7.3-0.6-13.1,0.6-17.7,3.7c-4.6,3-7,7.6-7.3,13.7c-0.3,5.8,1.5,11,5.5,15.8c3.7,4.3,10.7,9.4,21,15.8
	C1700.7,2393.1,1711.7,2401,1717.4,2407.4L1717.4,2407.4z M1841,2407.4c6.1,6.4,9.4,13.7,10,21.6c0.3,2.4,0,5.5-0.6,8.8
	c-0.6,3.3-1.8,6.7-4,9.7c-2.1,3-4.3,6.1-7,8.8s-5.2,4.6-7,5.2c-8.8,4.6-20.1,6.4-33.5,5.2c-16.7-1.5-27.7-4.9-32.6-10v-27.1l0.9,0.9
	c5.2,9.1,10.7,15.8,16.4,20.1s12.5,6.7,20.1,7.3c14.3,1.2,23.4-2.1,27.7-10c0-0.6,0.6-1.5,0.9-2.4c0.9-2.1,1.2-4.9,1.5-7.9
	c0.3-6.1-1.5-11.3-5.5-15.8c-4-4.3-12.2-10.7-24.3-18.6c-15.5-10-25.9-18-31-23.4c-5.8-6.7-8.5-14.6-7.9-23.7
	c0.6-9.7,5.2-17.3,13.4-23.4c8.5-6.1,18.9-8.5,31.7-7.6c8.8,0.9,16.7,2.7,23.7,5.5c6.4,2.7,9.4,5.2,9.1,7.3c0,1.2,0.3,9.1,0.3,24
	c0.9,1.5-0.6-0.6-4.3-6.1s-7.9-10.3-13.4-14.3c-4.9-4-11.3-6.1-19.5-6.7c-7.3-0.6-13.1,0.6-17.7,3.7c-4.6,3-7,7.6-7.3,13.7
	c-0.3,5.8,1.5,11,5.5,15.8c3.7,4.3,10.7,9.4,21,15.8C1824,2393.1,1834.9,2401,1841,2407.4L1841,2407.4z M1885.7,2463.4h-25.6
	l-0.3-0.3c3.3-0.6,5.8-2.1,7.6-4.9s4-5.2,6.1-7.9c2.1-2.4,7-12.2,14.6-28.6c7.6-16.4,13.4-29.2,17.3-38.7
	c10.3-25.3,19.2-48.1,26.8-67.9c18.9,45,37.7,88.3,56.3,129c2.1,5.8,4.9,10,7.9,13.1c3.3,3,6.7,4.9,10.7,5.5v0.3l-32.9,0.3
	c-6.1-16.1-11-28.3-14.3-37.1h-60.6L1885.7,2463.4z M1955.4,2416.6c-0.3-0.9-9.1-22.2-26.2-63.6l-27.1,65.1h53.9L1955.4,2416.6z
	 M2083.9,2407.4c6.1,6.4,9.4,13.7,10,21.6c0.3,2.4,0,5.5-0.6,8.8c-0.6,3.3-1.8,6.7-4,9.7c-2.1,3-4.3,6.1-7,8.8s-5.2,4.6-7,5.2
	c-8.8,4.6-20.1,6.4-33.5,5.2c-16.7-1.5-27.7-4.9-32.6-10v-27.1l0.9,0.9c5.2,9.1,10.7,15.8,16.4,20.1c5.8,4.3,12.5,6.7,20.1,7.3
	c14.3,1.2,23.4-2.1,27.7-10c0-0.6,0.6-1.5,0.9-2.4c0.9-2.1,1.2-4.9,1.5-7.9c0.3-6.1-1.5-11.3-5.5-15.8c-4-4.3-12.2-10.7-24.3-18.6
	c-15.5-10-25.9-18-31-23.4c-5.8-6.7-8.5-14.6-7.9-23.7c0.6-9.7,5.2-17.3,13.4-23.4c8.5-6.1,18.9-8.5,31.7-7.6
	c8.8,0.9,16.7,2.7,23.7,5.5c6.4,2.7,9.4,5.2,9.1,7.3c0,1.2,0.3,9.1,0.3,24c0.9,1.5-0.6-0.6-4.3-6.1c-3.7-5.5-7.9-10.3-13.4-14.3
	c-4.9-4-11.3-6.1-19.5-6.7c-7.3-0.6-13.1,0.6-17.7,3.7c-4.6,3-7,7.6-7.3,13.7c-0.3,5.8,1.5,11,5.5,15.8c3.7,4.3,10.7,9.4,21,15.8
	C2066.8,2393.1,2077.8,2401,2083.9,2407.4L2083.9,2407.4z M2207.1,2407.4c6.1,6.4,9.4,13.7,10,21.6c0.3,2.4,0,5.5-0.6,8.8
	s-1.8,6.7-4,9.7c-2.1,3-4.3,6.1-7,8.8c-2.7,2.7-5.2,4.6-7,5.2c-8.8,4.6-20.1,6.4-33.5,5.2c-16.7-1.5-27.7-4.9-32.6-10v-27.1l0.9,0.9
	c5.2,9.1,10.7,15.8,16.4,20.1c5.8,4.3,12.5,6.7,20.1,7.3c14.3,1.2,23.4-2.1,27.7-10c0-0.6,0.6-1.5,0.9-2.4c0.9-2.1,1.2-4.9,1.5-7.9
	c0.3-6.1-1.5-11.3-5.5-15.8c-4-4.3-12.2-10.7-24.3-18.6c-15.5-10-25.9-18-31-23.4c-5.8-6.7-8.5-14.6-7.9-23.7
	c0.6-9.7,5.2-17.3,13.4-23.4c8.5-6.1,18.9-8.5,31.7-7.6c8.8,0.9,16.7,2.7,23.7,5.5c6.4,2.7,9.4,5.2,9.1,7.3c0,1.2,0.3,9.1,0.3,24
	c0.9,1.5-0.6-0.6-4.3-6.1c-3.7-5.5-7.9-10.3-13.4-14.3c-4.9-4-11.3-6.1-19.5-6.7c-7.3-0.6-13.1,0.6-17.7,3.7c-4.6,3-7,7.6-7.3,13.7
	c-0.3,5.8,1.5,11,5.5,15.8c3.7,4.3,10.7,9.4,21,15.8C2190.4,2393.1,2201,2401,2207.1,2407.4L2207.1,2407.4z M2305.4,2326.2
	c-4,0.3-7,1.5-9.4,3.7c-2.4,2.1-4.9,4.6-6.7,7.6v106.8c0,4,0.9,7.3,3,10c1.5,2.1,3,4,5.2,5.5s4.6,2.4,7.3,3c0.3,0.3,0.3,0.6,0.3,0.6
	c-0.6,0.3-2.4,0.6-5.2,0.3c-18.3-0.6-32.3-0.6-42.3,0c-2.1,0-3.7,0-4.3-0.9c4.9-0.3,8.8-2.1,12.2-5.2c3.3-3,5.2-6.7,5.5-10.7v-102.9
	c0-2.7-0.6-5.2-1.8-7.3c-1.2-2.7-2.7-5.2-4.6-7.3c-1.8-2.1-4-3-6.4-3c1.2-0.3,9.1-0.3,24-0.6S2304.8,2325.9,2305.4,2326.2
	L2305.4,2326.2z M2485.6,2328c-3.7,0.6-6.7,2.4-8.5,5.5c-2.1,3-3,7.6-3,13.4l0.3,75.5c0,15.8,0.3,28.3,0.6,38c0,2.4-0.3,4.3-1.2,5.2
	h-1.8c-12.8-13.1-48.7-47.2-107.7-102.3l-0.6,64.8v16.1c0,5.8,0.9,10,3,13.4c2.1,3,4.9,5.2,8.5,5.5v0.3h-35.3
	c3.7-0.6,6.7-2.4,8.5-5.5c2.1-3,3-7.6,3-13.4V2426l0.6-77.9c0-9.1,0-16.1-0.3-20.4h0.6l106.5,96.8c1.2,1.2,1.8,1.8,2.4,1.8
	s0.9-0.9,0.9-2.7l-0.3-76.4c0-5.8-0.9-10-3-13.4c-2.1-3-4.9-5.2-8.5-5.5v-0.3H2485.6z M1465.8,2531.6h-41.7l-0.3-0.3
	c5.2-0.9,9.4-3.7,12.5-7.9c3-4.3,6.1-8.5,9.7-12.8c3.3-4.3,11.3-19.5,23.7-46.3c12.2-26.8,21.6-47.8,28-62.7
	c16.7-41.1,31.3-77.9,43.5-110.5c30.7,73.3,61.2,143.3,91.3,209.7c3.3,9.1,7.9,16.4,13.1,21.3c5.2,5.2,11,7.9,17.3,8.8v0.3
	l-53.6,0.3c-9.7-25.9-17.7-46-23.4-60.3h-98.3L1465.8,2531.6L1465.8,2531.6z M1579,2455.2c-0.6-1.5-14.9-35.9-42.3-103.2
	l-43.8,105.9h87.3L1579,2455.2L1579,2455.2z M2640.5,2430c10.3,11,15.8,22.8,16.7,36.2c0.6,4,0.3,8.8-0.9,14.6s-3.3,11.3-6.7,16.1
	c-3.3,5.2-7.3,10-11.6,14.9c-4.6,4.9-8.5,7.6-11.6,8.8c-14.6,7.9-33.5,10.7-56,8.8c-28-2.4-46.3-7.9-54.8-16.7v-45.3
	c0.6,0.6,0.9,0.9,1.5,1.8c8.8,15.5,18,26.5,27.4,33.5c9.7,7,21,11.3,33.8,12.2c23.7,2.1,39.3-3.3,46.6-16.7c0.3-0.9,0.9-2.4,1.8-4.3
	c1.5-3.7,2.1-8.2,2.4-13.1c0.6-10-2.7-19.2-9.1-26.5c-6.7-7.3-20.1-17.7-40.8-31.3c-25.9-17-43.2-30.1-51.7-39
	c-9.7-11.3-14-24.3-13.1-39.9c0.9-16.1,8.5-29.2,22.5-39.3s31.7-14.3,52.6-12.5c14.9,1.5,28,4.6,39.9,9.1c11,4.6,15.8,8.5,15.2,12.2
	c0.3,2.1,0.6,15.5,0.6,40.2c1.5,2.4-0.9-1.2-7-10.3c-6.1-9.1-13.4-17.3-22.2-24c-7.9-6.4-18.9-10-32.6-11
	c-12.2-0.9-21.9,1.2-29.2,6.1c-7.3,4.9-11.6,12.8-12.2,23.1c-0.6,9.7,2.7,18.6,9.1,26.2c6.1,7,18,15.8,35,26.5
	C2612.2,2406.2,2630.4,2419.3,2640.5,2430L2640.5,2430z M2516.6,2287.5c0,0-3,8.2,0,16.7c0,0-18,12.5-17.7,51.7
	C2499,2356,2485.3,2317.4,2516.6,2287.5z"/>
<path class="st2" d="M1743.6,2614.7c0.3,0.3,0.6,3,0.6,8.2c0,5.2-0.3,9.7-0.9,14c0,0.3-0.3,0.6-0.6,1.2l-0.9,0.9
	c-1.8,1.5-4.9,3.3-9.7,4.9c-7.9,2.7-17.7,4.3-29.5,4.3c-16.4,0-30.7-5.5-42.3-16.1c-11.9-10.7-18-24.3-18.3-40.5v-0.3
	c0.3-16.1,6.4-29.8,18.3-40.5c11.6-10.7,25.9-16.1,42.3-16.1c11.9,0,21.6,1.5,29.5,4.3c4.9,1.8,7.9,3.3,9.7,4.9l0.9,0.9
	c0.3,0.3,0.3,0.9,0.6,1.2c0.6,4.3,0.9,8.8,0.9,14s-0.3,7.9-0.6,8.2h-0.3c-0.3-1.2-0.9-3-1.8-4.9c-0.9-1.8-2.4-4-4.3-6.1
	c-1.8-2.1-4.3-4-7-6.1s-6.4-4-10.3-5.8c-4.6-2.1-10.3-3-17.7-3c-12.2,0-22.2,4-30.1,12.2c-8.5,8.8-12.5,21-12.5,36.2v2.1
	c0,15.5,4.3,27.4,12.5,36.2c7.9,8.2,18,12.2,30.1,12.2c7.3,0,13.1-0.9,17.7-3c4-1.8,7.6-3.7,10.3-5.8c2.7-2.1,5.2-4.3,7-6.1
	c1.8-2.1,3.3-4,4.3-6.1c0.9-1.8,1.5-3.7,1.8-4.9h0.3V2614.7L1743.6,2614.7z M1871.1,2648.2l-14.9-0.3h-3.7l-14.9,0.3v-0.3
	c5.2-0.6,8.2-4.6,9.1-11.9v-0.6c0-0.6,0.3-1.5,0.3-2.4l0.3-77.6h-0.3v-0.3c0-4.6-0.9-8.2-2.4-10.7c-1.5-2.4-4-4-7-4.6v-0.3l42.6-0.3
	c9.4,0.3,16.7,2.1,22.2,5.8c6.7,4.3,10,10.7,10,19.2c0,11.3-7,20.7-21,28.9c-1.5,0.3-2.7,0.9-3.3,1.8c22.2,32,43.5,49.3,63.9,52
	l5.8,0.9l-27.1,0.3c-11,0-20.7-4.6-28.9-14.3c-11.6-14.9-21-27.1-28.6-35.9c-4.9,0-8.8,0.3-11.6,0.9l0.6,34.1
	c0,4.6,0.9,8.2,2.4,10.7C1866,2646,1868.1,2647.6,1871.1,2648.2L1871.1,2648.2z M1895.5,2566c0-7.3-1.8-12.5-5.5-15.5
	c-3.7-3.3-9.4-4.9-17.3-4.9c-6.4,0-10,0.9-10.3,2.7c0,0.3-0.3,0.9-0.3,1.8l-0.6,41.4h6.7c9.4,0,16.4-2.4,20.7-7.3
	C1893.3,2579.1,1895.5,2573,1895.5,2566z M2086.6,2648.8c-0.9,0-2.1,0.3-3.7,0.3c-8.5-0.3-19.5-0.6-32.9-0.6c-9.7,0-22.8,0-39.3,0.3
	v-0.3c3-0.3,5.2-1.8,7-4.6c1.5-2.4,2.4-6.1,2.4-10.7l0.3-77.6h-0.3v-0.3c0-4.6-0.9-8.2-2.4-10.7c-1.5-2.4-4-4-7-4.6v-0.3l31-0.3
	c8.5,0,16.1,0,23.1-0.3h1.2c4.9,0,9.7-0.3,14-0.6c3.7-0.3,5.5,0,5.5,0.6v2.7l0.3,14.9h-0.3c-0.3-1.5-0.9-2.7-1.8-4s-2.4-2.1-4.6-3
	c-2.1-0.9-4.9-1.5-8.2-2.1c-3.3-0.6-7.6-0.9-13.1-1.2c-4.9,0-11.3-0.3-19.8-0.3c-1.8,0-3,0.3-3.7,0.9c-0.3,0.3-0.3,1.2-0.3,2.4v35.6
	c0,1.2,0.9,2.1,2.4,2.1c3,0,13.7,0,32.3,0.3c4.6,0,7.9-0.9,9.7-3c2.1-2.1,3.3-4.6,3.7-7.6h0.3c0,4.6,0,13.4,0.3,27.4h-0.3
	c-0.3-3-1.8-5.2-4.6-7c-2.4-1.5-6.1-2.4-10.7-2.4c-7-0.3-17.7-0.6-31.7-0.6c-0.9,0-1.5,0.3-1.5,1.2v36.2c0,5.2,3,8.2,9.1,9.4
	c1.5,0.3,6.7,0.3,15.5,0.3c4,0,7.6-0.3,11-1.2c6.7-1.8,11.9-4,14.9-6.4c3.3-2.4,5.2-4.9,6.1-7.9l0.3,0.3l-3.3,21.9l-0.3,0.9
	L2086.6,2648.8L2086.6,2648.8z M2243.3,2648.8c-0.9,0-2.1,0.3-3.7,0.3c-8.5-0.3-19.5-0.6-32.9-0.6c-9.7,0-22.8,0-39.3,0.3v-0.3
	c3-0.3,5.2-1.8,7-4.6c1.5-2.4,2.4-6.1,2.4-10.7l0.3-77.6h-0.3v-0.3c0-4.6-0.9-8.2-2.4-10.7c-1.5-2.4-4-4-7-4.6v-0.3l31-0.3
	c8.5,0,16.1,0,23.1-0.3h1.2c4.9,0,9.7-0.3,14-0.6c3.7-0.3,5.5,0,5.5,0.6v2.7l0.3,14.9h-0.3c-0.3-1.5-0.9-2.7-1.8-4
	c-0.9-1.2-2.4-2.1-4.6-3c-2.1-0.9-4.9-1.5-8.2-2.1c-3.3-0.6-7.6-0.9-13.1-1.2c-4.9,0-11.3-0.3-19.8-0.3c-1.8,0-3,0.3-3.7,0.9
	c-0.3,0.3-0.3,1.2-0.3,2.4v35.6c0,1.2,0.9,2.1,2.4,2.1c3,0,13.7,0,32.3,0.3c4.6,0,7.9-0.9,9.7-3c2.1-2.1,3.3-4.6,3.7-7.6h0.3
	c0,4.6,0,13.4,0.3,27.4h-0.3c-0.3-3-1.8-5.2-4.6-7c-2.4-1.5-6.1-2.4-10.7-2.4c-7-0.3-17.7-0.6-31.7-0.6c-0.9,0-1.5,0.3-1.5,1.2v36.2
	c0,5.2,3,8.2,9.1,9.4c1.5,0.3,6.7,0.3,15.5,0.3c4,0,7.6-0.3,11-1.2c6.7-1.8,11.9-4,14.9-6.4c3.3-2.4,5.2-4.9,6.1-7.9l0.3,0.3
	l-3.3,21.9l-0.3,0.9L2243.3,2648.8L2243.3,2648.8z M2326.4,2648.5c3-0.3,5.2-1.8,7-4.6c1.5-2.4,2.4-6.1,2.4-10.7l0.3-77.9h-0.3v-0.3
	c0-4.6-0.9-8.2-2.4-10.7c-1.5-2.4-4-4-7-4.6v-0.3c19.2-0.6,35.3-0.9,48.1-0.9c19.2,0,34.4,4.6,46,13.7c11.9,9.4,18,22.5,18,39
	c0,19.2-6.4,33.8-19.2,43.8c-11.9,9.1-27.1,13.4-45.6,12.8C2369.9,2648.8,2354.1,2648.8,2326.4,2648.5L2326.4,2648.5z
	 M2351.4,2628.1c0,5.5,1.5,9.1,4.3,11c2.7,1.8,8.5,2.7,17.3,2.7c32.3,0,48.7-15.8,48.7-47.5c0-32-16.4-48.1-49.3-48.1h-11.6
	c-6.1,0.6-9.1,2.1-9.1,5.2v76.7L2351.4,2628.1L2351.4,2628.1z"/>
<path class="st3" d="M2451.8,2589.4h204.8v4h-204.8V2589.4z M1424.7,2589.4h204.8v4h-204.8V2589.4z"/>
</svg>
