<?xml version="1.0" encoding="UTF-8"?>
<svg version="1.1" xmlns="http://www.w3.org/2000/svg" width="512" height="512">
<path d="M0 0 C0.66 0 1.32 0 2 0 C2.53850586 1.45116211 2.53850586 1.45116211 3.08789062 2.93164062 C9.9310765 21.36746147 16.79166524 39.79668649 23.703125 58.20703125 C23.94759369 58.85825329 24.19206238 59.50947533 24.44393921 60.18043137 C25.70038007 63.52723384 26.95697568 66.87397819 28.21362305 70.22070312 C35.78361767 90.38151793 43.33364123 110.54893859 50.79833984 130.74905396 C53.21553137 137.28847292 55.63764413 143.82607072 58.05993652 150.36360168 C61.72157016 160.24600245 61.72157016 160.24600245 63.49975586 165.05651855 C66.44379989 173.02088605 69.39353455 180.98307811 72.35671234 188.94034958 C73.67085454 192.46992278 74.98202506 196.00052472 76.28515625 199.53417969 C86.53417374 228.87861505 86.53417374 228.87861505 102.76171875 255.140625 C103.37466797 256.06101562 103.37466797 256.06101562 104 257 C102.71987895 260.84036316 101.40743436 261.23567213 97.9609375 263.2578125 C96.90390625 263.88429688 95.846875 264.51078125 94.7578125 265.15625 C93.64148438 265.8059375 92.52515625 266.455625 91.375 267.125 C89.21608775 268.39833902 87.05723428 269.67177771 84.8984375 270.9453125 C83.77896729 271.60176758 82.65949707 272.25822266 81.50610352 272.93457031 C77.86108034 275.07628319 74.23606304 277.25062153 70.61328125 279.4296875 C65.59187805 282.44910127 60.56184413 285.45312842 55.51953125 288.4375 C54.89751831 288.80571869 54.27550537 289.17393738 53.63464355 289.55331421 C52.35515248 290.31070492 51.07565203 291.06807979 49.79614258 291.82543945 C38.25250403 298.66069423 26.74896333 305.55603353 15.29458618 312.53979492 C5.90395141 318.2630624 -3.53638244 323.89833803 -13 329.5 C-23.11575766 335.48901107 -33.2064085 341.51565004 -43.25 347.625 C-43.8217395 347.97274475 -44.393479 348.3204895 -44.98254395 348.67877197 C-48.98977938 351.11685807 -52.99512241 353.55804334 -57 356 C-61.58200265 358.79385615 -66.16499204 361.58607812 -70.75 364.375 C-71.3174292 364.72025726 -71.8848584 365.06551453 -72.46948242 365.42123413 C-82.87175741 371.74660843 -93.33843359 377.96085117 -103.81628418 384.16000366 C-113.63212245 389.96954863 -123.39100676 395.85214084 -133 402 C-137.75814755 398.64611949 -142.11453753 395.03206318 -146.375 391.0625 C-154.71395218 383.37213299 -164.13990815 374.83012139 -175.984375 374.90234375 C-176.91894531 374.90556641 -177.85351562 374.90878906 -178.81640625 374.91210938 C-179.78449219 374.92048828 -180.75257813 374.92886719 -181.75 374.9375 C-183.22533203 374.94426758 -183.22533203 374.94426758 -184.73046875 374.95117188 C-187.15370791 374.96293517 -189.57682273 374.97937316 -192 375 C-191.66226563 373.90042969 -191.32453125 372.80085938 -190.9765625 371.66796875 C-182.42319727 343.4891691 -181.29944771 315.33165277 -193.265625 287.85546875 C-194 286 -194 286 -194 284 C-190.27992216 284.58059018 -186.9719464 285.72415626 -183.48217773 287.12084961 C-167.23804913 293.60880306 -151.90258784 295.03247206 -135.234375 288.52734375 C-130.37442946 286.23236947 -126.18641432 283.34763364 -122 280 C-121.19304687 279.39800781 -120.38609375 278.79601562 -119.5546875 278.17578125 C-116.56416066 275.6288035 -114.12117527 272.81228692 -111.6875 269.75 C-111.25244141 269.234375 -110.81738281 268.71875 -110.36914062 268.1875 C-99.29582956 254.2940795 -93.75179396 235.80621797 -87.375 219.5 C-86.36286962 216.92536843 -85.34851827 214.35161354 -84.33422852 211.77783203 C-81.9814592 205.80404395 -79.63594338 199.8274385 -77.29344845 193.8496151 C-74.66157164 187.13424136 -72.02045291 180.42251274 -69.37890625 173.7109375 C-62.54868242 156.35034717 -55.73475036 138.98337383 -48.93110657 121.61235046 C-36.32208116 89.42356816 -23.57438686 57.29313322 -10.69381714 25.21218872 C-8.79330513 20.47850235 -6.89518658 15.74408658 -5.01953125 11.00048828 C-4.7352124 10.2829689 -4.45089355 9.56544952 -4.15795898 8.82618713 C-3.44440277 7.02303649 -2.73376261 5.21873258 -2.0234375 3.41430664 C-1 1 -1 1 0 0 Z M0 79 C-0.47606689 80.22775146 -0.95213379 81.45550293 -1.44262695 82.72045898 C-1.76247559 83.54532806 -2.08232422 84.37019714 -2.41186523 85.22006226 C-3.14405302 87.10834368 -3.87623037 88.99662915 -4.60839844 90.88491821 C-6.7109411 96.30740533 -8.81368416 101.72981462 -10.91674805 107.15209961 C-15.18794338 118.16501305 -19.45709113 129.17870493 -23.71875 140.1953125 C-34.34651327 167.66088833 -45.0828479 195.08266618 -55.86740112 222.48703003 C-59.07173725 230.63233758 -62.26527668 238.7818205 -65.453125 246.93359375 C-73.08362703 266.44133866 -80.72577055 285.93635603 -88.67578125 305.31640625 C-102.77481755 338.54322195 -102.77481755 338.54322195 -107 374 C-94.06358332 367.21759059 -81.31740341 360.09374074 -68.55957031 352.98339844 C-19.55880264 325.67548781 -19.55880264 325.67548781 3.375 313.3125 C11.9650743 308.67961115 20.48252808 303.9325161 28.96582031 299.10717773 C38.40218309 293.748106 47.90651548 288.51462581 57.41870117 283.29174805 C58.01884537 282.96181351 58.61898956 282.63187897 59.23731995 282.29194641 C60.86949671 281.39478832 62.5023517 280.4988644 64.13525391 279.60302734 C66.78939677 278.11784735 69.40161167 276.58030286 72 275 C70.67554915 268.37105659 68.78331885 262.24709958 66.375 255.9375 C66.05015625 255.07189453 65.7253125 254.20628906 65.390625 253.31445312 C64.59908318 251.20755504 63.80216278 249.10287198 63 247 C59.5278365 247.57869392 56.72905845 248.45736741 53.60302734 250.06616211 C52.7637973 250.49428696 51.92456726 250.9224118 51.05990601 251.36351013 C50.1609964 251.83007523 49.26208679 252.29664032 48.3359375 252.77734375 C47.38925201 253.2627211 46.44256653 253.74809845 45.4671936 254.2481842 C42.43346447 255.80553584 39.40426219 257.3714805 36.375 258.9375 C34.39090461 259.95692459 32.40653211 260.97581005 30.421875 261.99414062 C18.92565026 267.90086317 7.4733654 273.88845224 -3.95629883 279.92276001 C-8.8581379 282.50653162 -13.77328006 285.06487717 -18.6875 287.625 C-19.69876953 288.15222656 -20.71003906 288.67945313 -21.75195312 289.22265625 C-24.16779697 290.48210091 -26.58380926 291.74122101 -29 293 C-29 292.34 -29 291.68 -29 291 C-28.28948486 290.73155273 -27.57896973 290.46310547 -26.84692383 290.18652344 C-23.91934487 288.96638505 -21.22156671 287.55532311 -18.44921875 286.015625 C-17.37051514 285.41733887 -16.29181152 284.81905273 -15.18041992 284.20263672 C-14.01595374 283.55204328 -12.85165121 282.90115686 -11.6875 282.25 C-11.09208405 281.91808655 -10.49666809 281.5861731 -9.88320923 281.24420166 C1.52612152 274.88250866 12.83237392 268.35074522 24.0859375 261.71728516 C27.05492948 259.96762953 30.02726558 258.22375686 33 256.48046875 C34.93769414 255.34147605 36.87520144 254.20216541 38.8125 253.0625 C39.67721924 252.55509277 40.54193848 252.04768555 41.43286133 251.52490234 C47.71086594 247.81967126 53.87015338 243.94505208 60 240 C53.58293306 221.65282015 46.95912326 203.38839157 40.19830322 185.16525269 C35.4561863 172.38160944 30.74459423 159.58734752 26.07421875 146.77734375 C25.69344995 145.73313704 25.69344995 145.73313704 25.30498886 144.66783524 C23.02198702 138.40651816 20.73999159 132.14483561 18.46228027 125.8815918 C12.76216197 110.20748408 7.00060395 94.56208838 1 79 C0.67 79 0.34 79 0 79 Z " fill="#0F364F" transform="translate(260,2)"/>
<path d="M0 0 C1.93130605 1.85405381 3.77698532 3.72729504 5.47265625 5.80078125 C14.65537715 16.98068968 26.70929884 23.17995787 41 25 C52.59431823 26.09416579 63.79002264 22.91348698 74.28125 18.18359375 C77.1417091 16.93830768 80.02925371 15.94801757 83 15 C82.8138916 15.53874756 82.6277832 16.07749512 82.43603516 16.63256836 C80.53344582 22.22661424 78.87644955 27.84865033 77.375 33.5625 C77.1584375 34.36107422 76.941875 35.15964844 76.71875 35.98242188 C71.09260572 57.28883863 72.97609184 80.92275825 79.44921875 101.8359375 C80 104 80 104 80 108 C78.96101562 107.89300781 77.92203125 107.78601563 76.8515625 107.67578125 C68.6406477 106.92718253 61.69083826 106.53784524 54 110 C53.12085938 110.38027344 52.24171875 110.76054687 51.3359375 111.15234375 C44.63554396 114.40816878 40.04593047 118.71867491 34.93359375 124.0703125 C7.59417806 152.08925742 -33.24533565 167.96239809 -71 175 C-71.99 175 -72.98 175 -74 175 C-74 174.34 -74 173.68 -74 173 C-73.34628418 172.74420166 -72.69256836 172.48840332 -72.01904297 172.22485352 C-47.68879966 162.62238629 -25.15187251 151.23459361 -13.1875 126.5625 C-12.42449198 124.72200093 -11.69438372 122.86747137 -11 121 C-10.52046875 119.71996094 -10.52046875 119.71996094 -10.03125 118.4140625 C-7.97918575 111.78285488 -7.66535717 105.20274103 -7.5625 98.3125 C-7.54018311 97.45293701 -7.51786621 96.59337402 -7.49487305 95.70776367 C-7.55687066 77.4720879 -15.32209574 61.08553316 -22.3125 44.625 C-23.72905641 41.27760671 -25.14158355 37.92875839 -26.54252625 34.57479858 C-27.40778509 32.50412321 -28.28215101 30.43722446 -29.1665802 28.37466431 C-29.55416 27.44874481 -29.94173981 26.52282532 -30.34106445 25.56884766 C-30.85924492 24.35003403 -30.85924492 24.35003403 -31.38789368 23.1065979 C-32 21 -32 21 -31 18 C-28.89840466 16.5560531 -26.83995041 15.27726514 -24.62890625 14.0234375 C-23.99137924 13.65272125 -23.35385223 13.282005 -22.69700623 12.90005493 C-20.65695383 11.71653475 -18.6098949 10.54576317 -16.5625 9.375 C-15.18637891 8.578937 -13.81072177 7.7820714 -12.43554688 6.984375 C-2.71213389 1.35606694 -2.71213389 1.35606694 0 0 Z " fill="#0D354E" transform="translate(363,284)"/>
<path d="M0 0 C4.97816018 1.70566444 9.18237111 4.49313273 13.625 7.25 C47.45606897 27.84571009 86.56922494 48.12873428 127.0625 48.4375 C128.59632324 48.4528479 128.59632324 48.4528479 130.16113281 48.46850586 C144.03343313 48.3070162 156.20760071 43.89410882 166.50390625 34.55078125 C168.09814128 33.05301071 168.09814128 33.05301071 169 31 C172.07734984 32.37599563 174.20053841 33.98604856 176.625 36.3125 C190.07136107 48.24552523 206.79280993 48.9463976 223.93554688 48.20703125 C263.47235463 45.53596584 304.33549073 23.75634697 336.44921875 1.6484375 C339 0 339 0 341 0 C330.6983259 24.01944737 284.35559263 43.9676557 261.87255859 53.29785156 C202.66601848 76.68604503 139.13226435 77.23775132 80.27734375 52.21923828 C54.92714232 41.12573082 31.95564401 26.75423483 10 10 C9.40670898 9.55011719 8.81341797 9.10023438 8.20214844 8.63671875 C2.0115146 3.92360779 2.0115146 3.92360779 0 2 C0 1.34 0 0.68 0 0 Z " fill="#0C3048" transform="translate(80,440)"/>
<path d="M0 0 C0.27972656 0.75023437 0.55945313 1.50046875 0.84765625 2.2734375 C9.90822107 25.40555477 27.91923772 39.08101754 50 49 C53.78763 50.52414635 57.61308129 51.8392126 61.5078125 53.0625 C64 54 64 54 65 56 C58.527691 56.2064944 52.94478439 55.62349461 46.6875 54 C45.82866211 53.77997314 44.96982422 53.55994629 44.08496094 53.33325195 C28.60321062 49.17820266 14.14290209 42.43998384 0 35 C-1.26550154 34.34481357 -2.53112631 33.68986509 -3.796875 33.03515625 C-10.4317434 29.57724717 -16.97144878 25.95148154 -23.4375 22.1875 C-24.09500244 21.81439697 -24.75250488 21.44129395 -25.42993164 21.05688477 C-27.24609375 19.98046875 -27.24609375 19.98046875 -30 18 C-30 17.01 -30 16.02 -30 15 C-26.21425471 12.85561882 -22.42393622 10.71963182 -18.62915039 8.59130859 C-17.33879644 7.8660625 -16.04972164 7.13853566 -14.76196289 6.40869141 C-12.91103129 5.3601868 -11.05565879 4.31996286 -9.19921875 3.28125 C-7.52605591 2.33862305 -7.52605591 2.33862305 -5.8190918 1.37695312 C-3 0 -3 0 0 0 Z " fill="#0B3047" transform="translate(146,402)"/>
<path d="M0 0 C0.99 0.99 0.99 0.99 2 2 C1.67 2.33 1.34 2.66 1 3 C1.99 3.66 2.98 4.32 4 5 C2.87694458 5.5576001 2.87694458 5.5576001 1.73120117 6.12646484 C-13.27144478 13.58240881 -28.20967621 21.12928435 -43 29 C-46.85109279 31.04752671 -50.70579376 33.08806954 -54.5625 35.125 C-55.47443115 35.61121826 -56.3863623 36.09743652 -57.32592773 36.59838867 C-58.16841064 37.04287354 -59.01089355 37.4873584 -59.87890625 37.9453125 C-61.00147827 38.54110107 -61.00147827 38.54110107 -62.14672852 39.14892578 C-64 40 -64 40 -66 40 C-66 39.34 -66 38.68 -66 38 C-65.17483887 37.5349707 -65.17483887 37.5349707 -64.33300781 37.06054688 C-31.94233808 18.91494452 -31.94233808 18.91494452 0 0 Z " fill="#2C4453" transform="translate(297,255)"/>
<path d="M0 0 C-2.61587974 2.9681599 -5.66399544 4.69353823 -9.07421875 6.66015625 C-9.67113525 7.00671768 -10.26805176 7.35327911 -10.88305664 7.71034241 C-12.81555893 8.83177431 -14.75147584 9.94716128 -16.6875 11.0625 C-19.32487063 12.5890974 -21.95999582 14.11951621 -24.59375 15.65234375 C-25.23865891 16.02750122 -25.88356781 16.40265869 -26.54801941 16.78918457 C-32.33351347 20.16818409 -38.01850706 23.69690072 -43.60620117 27.39477539 C-45.03521341 28.32057712 -46.5129062 29.17070098 -48 30 C-48.66 29.67 -49.32 29.34 -50 29 C-46.8670621 21.50737142 -41.80987318 19.16579292 -34.75 15.625 C-32.57995262 14.50019482 -30.4106834 13.3738871 -28.2421875 12.24609375 C-27.17967773 11.69937012 -26.11716797 11.15264648 -25.02246094 10.58935547 C-22.32966656 9.17335455 -19.69372318 7.69988893 -17.0703125 6.16015625 C-16.35133789 5.73847168 -15.63236328 5.31678711 -14.89160156 4.88232422 C-13.588717 4.110373 -12.29077049 3.32999776 -10.99902344 2.53955078 C-7.1677137 0.29805356 -4.42644121 -0.39689974 0 0 Z " fill="#1C3240" transform="translate(333,279)"/>
<path d="M0 0 C0.54011719 0.22945313 1.08023438 0.45890625 1.63671875 0.6953125 C1.63671875 1.3553125 1.63671875 2.0153125 1.63671875 2.6953125 C0.91718018 3.05246338 0.1976416 3.40961426 -0.54370117 3.77758789 C-3.88050415 5.43543918 -7.21601569 7.09586806 -10.55078125 8.7578125 C-11.14608643 9.05432709 -11.7413916 9.35084167 -12.35473633 9.65634155 C-20.0677098 13.50144875 -27.72165609 17.40320491 -35.23828125 21.62109375 C-37.36328125 22.6953125 -37.36328125 22.6953125 -39.36328125 22.6953125 C-39.36328125 22.0353125 -39.36328125 21.3753125 -39.36328125 20.6953125 C-38.7398584 20.34339844 -38.11643555 19.99148438 -37.47412109 19.62890625 C-35.61382925 18.57861434 -33.75373947 17.5279645 -31.89379883 16.47705078 C-29.78511953 15.28640153 -27.67557661 14.09728052 -25.56518555 12.90966797 C-20.97054757 10.32029139 -16.38230734 7.72875491 -11.859375 5.015625 C-11.22402832 4.63792969 -10.58868164 4.26023437 -9.93408203 3.87109375 C-8.28661438 2.88654769 -6.64691188 1.88904065 -5.0078125 0.890625 C-2.36328125 -0.3046875 -2.36328125 -0.3046875 0 0 Z " fill="#293842" transform="translate(270.36328125,272.3046875)"/>
<path d="M0 0 C-1.55002747 3.88397689 -4.00476621 6.02979619 -7.125 8.75 C-8.03507812 9.54921875 -8.94515625 10.3484375 -9.8828125 11.171875 C-10.58148438 11.77515625 -11.28015625 12.3784375 -12 13 C-12.66 12.67 -13.32 12.34 -14 12 C-13.34 11.01 -12.68 10.02 -12 9 C-12.92280762 9.53741821 -12.92280762 9.53741821 -13.86425781 10.08569336 C-16.65658266 11.70805411 -19.45321454 13.32284208 -22.25 14.9375 C-23.21808594 15.50146484 -24.18617188 16.06542969 -25.18359375 16.64648438 C-26.11816406 17.18466797 -27.05273438 17.72285156 -28.015625 18.27734375 C-29.30388184 19.02359009 -29.30388184 19.02359009 -30.61816406 19.78491211 C-32.77633041 20.8858955 -34.63383748 21.53778404 -37 22 C-34.92318539 19.76182887 -32.95186361 18.26930169 -30.26171875 16.8359375 C-29.53017578 16.44003418 -28.79863281 16.04413086 -28.04492188 15.63623047 C-26.87799805 15.01192139 -26.87799805 15.01192139 -25.6875 14.375 C-19.01015259 10.74888187 -12.54809485 6.93147123 -6.2409668 2.69287109 C-2.19554833 0 -2.19554833 0 0 0 Z " fill="#031018" transform="translate(421,440)"/>
<path d="M0 0 C4.88036541 1.67491831 8.99152948 4.36791961 13.3125 7.125 C14.05306641 7.59292969 14.79363281 8.06085938 15.55664062 8.54296875 C17.37341968 9.69164196 19.18703037 10.84532369 21 12 C18.45866826 13.27066587 16.87208633 13 14 13 C11.66015625 11.35546875 11.66015625 11.35546875 9.0625 9.1875 C5.44647589 6.17985485 5.44647589 6.17985485 1.68359375 3.36328125 C1.12800781 2.91339844 0.57242188 2.46351563 0 2 C0 1.34 0 0.68 0 0 Z " fill="#04121C" transform="translate(80,440)"/>
<path d="M0 0 C3.8013151 1.38566457 7.2429773 3.17788274 10.77539062 5.12280273 C18.16718697 9.19012699 25.39522656 12.47757751 33.4375 15.02734375 C36 16 36 16 37 18 C34.03 18 31.06 18 28 18 C28.33 17.34 28.66 16.68 29 16 C28.06800781 15.6596875 27.13601562 15.319375 26.17578125 14.96875 C3.1546243 6.3092486 3.1546243 6.3092486 0 0 Z " fill="#02090E" transform="translate(174,440)"/>
<path d="M0 0 C-1.98 0.99 -3.96 1.98 -6 3 C-5.01 3.66 -4.02 4.32 -3 5 C-5.26999825 5.50377768 -7.54103003 6.00290019 -9.8125 6.5 C-11.70935547 6.91765625 -11.70935547 6.91765625 -13.64453125 7.34375 C-17 8 -17 8 -20 8 C-20 7.34 -20 6.68 -20 6 C-17.23371889 4.80077976 -14.462845 3.61539501 -11.6875 2.4375 C-10.90181641 2.09525391 -10.11613281 1.75300781 -9.30664062 1.40039062 C-8.54931641 1.08134766 -7.79199219 0.76230469 -7.01171875 0.43359375 C-5.96697388 -0.01415405 -5.96697388 -0.01415405 -4.90112305 -0.47094727 C-3 -1 -3 -1 0 0 Z " fill="#04121B" transform="translate(309,451)"/>
<path d="M0 0 C0.99 0.66 1.98 1.32 3 2 C0.2118978 3.5066972 -2.58103958 5.00419804 -5.375 6.5 C-6.1690625 6.92925781 -6.963125 7.35851562 -7.78125 7.80078125 C-8.54179687 8.20683594 -9.30234375 8.61289062 -10.0859375 9.03125 C-10.7876709 9.40830078 -11.4894043 9.78535156 -12.21240234 10.17382812 C-14 11 -14 11 -16 11 C-16 10.34 -16 9.68 -16 9 C-10.72 6.03 -5.44 3.06 0 0 Z " fill="#686868" transform="translate(247,284)"/>
<path d="M0 0 C0.66 0.33 1.32 0.66 2 1 C-0.20207254 5.84455959 -0.20207254 5.84455959 -2 8 C-5.75 8.9375 -5.75 8.9375 -9 9 C-9 7.68 -9 6.36 -9 5 C-7.54735962 4.1361871 -6.0876837 3.28419546 -4.625 2.4375 C-3.40683594 1.72400391 -3.40683594 1.72400391 -2.1640625 0.99609375 C-1.44992187 0.66738281 -0.73578125 0.33867187 0 0 Z " fill="#1D3849" transform="translate(285,302)"/>
<path d="M0 0 C-2.16614803 2.30874711 -4.39206608 4.05290181 -7.0625 5.75 C-8.10083984 6.42289062 -8.10083984 6.42289062 -9.16015625 7.109375 C-9.76730469 7.40328125 -10.37445313 7.6971875 -11 8 C-11.66 7.67 -12.32 7.34 -13 7 C-9.54224104 -0.38703051 -7.70275828 -0.12423804 0 0 Z " fill="#0F2939" transform="translate(306,295)"/>
<path d="M0 0 C0 0.66 0 1.32 0 2 C-0.66 2 -1.32 2 -2 2 C-2.33 2.99 -2.66 3.98 -3 5 C-6.5625 6.6875 -6.5625 6.6875 -10 8 C-10.66 7.01 -11.32 6.02 -12 5 C-10.75747321 4.15556432 -9.5056114 3.3248542 -8.25 2.5 C-7.55390625 2.0359375 -6.8578125 1.571875 -6.140625 1.09375 C-4 0 -4 0 0 0 Z " fill="#283F4E" transform="translate(282,266)"/>
<path d="M0 0 C0 0.66 0 1.32 0 2 C1.32 2.33 2.64 2.66 4 3 C2.71186658 3.83878455 1.41936744 4.67086783 0.125 5.5 C-0.59429687 5.9640625 -1.31359375 6.428125 -2.0546875 6.90625 C-4 8 -4 8 -6 8 C-5.814375 7.38125 -5.62875 6.7625 -5.4375 6.125 C-4.76313824 3.95839822 -4.76313824 3.95839822 -6 2 C-2.25 0 -2.25 0 0 0 Z " fill="#0D2534" transform="translate(277,308)"/>
<path d="M0 0 C0 0.33 0 0.66 0 1 C-5.78898419 1.20674944 -10.42932723 0.59162079 -16 -1 C-16 -1.33 -16 -1.66 -16 -2 C-9.78142918 -3.30156133 -5.77499615 -2.47499835 0 0 Z " fill="#092537" transform="translate(205,456)"/>
<path d="M0 0 C0 0.99 0 1.98 0 3 C-3.72965139 5.03435531 -5.66905042 6 -10 6 C-10 5.34 -10 4.68 -10 4 C-8.71086513 3.32845067 -7.41859796 2.66291141 -6.125 2 C-5.40570313 1.62875 -4.68640625 1.2575 -3.9453125 0.875 C-2 0 -2 0 0 0 Z " fill="#282C2E" transform="translate(258,279)"/>
<path d="M0 0 C3.07373463 0.62871845 5.33257408 1.12425629 7.2890625 3.69140625 C8.26200476 5.42380343 9.13804683 7.20978957 10 9 C5.68679932 7.24277009 2.0968916 4.1937832 0 0 Z " fill="#082435" transform="translate(95,451)"/>
<path d="M0 0 C-2.36595933 2.61500768 -4.86049226 4.38999603 -8 6 C-8.66 5.67 -9.32 5.34 -10 5 C-7.62417533 -0.26075462 -5.61350876 -0.1220328 0 0 Z " fill="#0D1D28" transform="translate(333,279)"/>
<path d="M0 0 C-3.90028225 2.60018816 -7.47434569 2.15085514 -12 2 C-7.6922054 -2.50360345 -5.94396675 -1.87124879 0 0 Z " fill="#092639" transform="translate(314,453)"/>
<path d="M0 0 C2.97 0.495 2.97 0.495 6 1 C1.25 5 1.25 5 -1 5 C-0.67 3.35 -0.34 1.7 0 0 Z " fill="#142834" transform="translate(312,287)"/>
<path d="M0 0 C-1.04874998 2.62187494 -1.64931313 3.79371361 -4.125 5.25 C-4.74375 5.4975 -5.3625 5.745 -6 6 C-6.66 5.34 -7.32 4.68 -8 4 C-2.25 0 -2.25 0 0 0 Z " fill="#010508" transform="translate(421,440)"/>
<path d="M0 0 C3.37503669 1.1858237 5.64722731 2.27573689 8 5 C7.34 5.66 6.68 6.32 6 7 C3.95880212 5.38405168 1.95927063 3.7143618 0 2 C0 1.34 0 0.68 0 0 Z " fill="#000000" transform="translate(80,440)"/>
<path d="M0 0 C2 1 2 1 4 3 C2.02 4.32 0.04 5.64 -2 7 C-2.66 6.67 -3.32 6.34 -4 6 C-2.68 4.02 -1.36 2.04 0 0 Z " fill="#071D2B" transform="translate(287,302)"/>
<path d="M0 0 C0 0.66 0 1.32 0 2 C-2.64 2.33 -5.28 2.66 -8 3 C-8 2.34 -8 1.68 -8 1 C-3.375 -1.125 -3.375 -1.125 0 0 Z " fill="#000204" transform="translate(297,456)"/>
<path d="M0 0 C2.64 0 5.28 0 8 0 C5.64722731 2.72426311 3.37503669 3.8141763 0 5 C0.66 3.68 1.32 2.36 2 1 C1.34 0.67 0.68 0.34 0 0 Z " fill="#0B1D28" transform="translate(298,295)"/>
<path d="M0 0 C2.97 0 5.94 0 9 0 C6.14693203 2.32472205 3.45925163 3.7508258 0 5 C0 4.34 0 3.68 0 3 C0.66 3 1.32 3 2 3 C2 2.34 2 1.68 2 1 C1.34 0.67 0.68 0.34 0 0 Z " fill="#384954" transform="translate(280,265)"/>
<path d="M0 0 C0.66 0 1.32 0 2 0 C2.66 2.64 3.32 5.28 4 8 C2 7 2 7 1 4 C0.01 4.66 -0.98 5.32 -2 6 C-1.34 4.02 -0.68 2.04 0 0 Z " fill="#051621" transform="translate(260,2)"/>
<path d="M0 0 C2 3 2 3 2 7 C-0.97 6.67 -3.94 6.34 -7 6 C-7 5.67 -7 5.34 -7 5 C-4.69 5 -2.38 5 0 5 C0 3.35 0 1.7 0 0 Z " fill="#031016" transform="translate(441,385)"/>
</svg>
